<?xml version="1.0" encoding="UTF-8"?>
<svg version="1.1" xmlns="http://www.w3.org/2000/svg" width="512" height="512">
<path d="M0 0 C1.01790619 0.00215515 2.03581238 0.0043103 3.08456421 0.00653076 C17.69363523 0.05620146 32.02575853 0.30709809 46.375 3.3125 C47.34985352 3.51117676 48.32470703 3.70985352 49.32910156 3.91455078 C97.7109774 14.03517194 141.69928269 35.9516877 177.375 70.3125 C178.3640332 71.26068604 178.3640332 71.26068604 179.37304688 72.22802734 C188.86130305 81.37247479 197.6012044 90.66984009 205.375 101.3125 C206.23306152 102.46355017 207.09113451 103.61459177 207.94921875 104.765625 C213.98736829 112.95680614 219.34595521 121.47054105 224.375 130.3125 C224.73948242 130.94430176 225.10396484 131.57610352 225.47949219 132.22705078 C247.08534998 169.97532572 256.85198095 212.74189997 256.6875 255.9375 C256.68534485 256.95540619 256.6831897 257.97331238 256.68096924 259.02206421 C256.63129854 273.63113523 256.38040191 287.96325853 253.375 302.3125 C253.07698486 303.77478027 253.07698486 303.77478027 252.77294922 305.26660156 C242.65232806 353.6484774 220.7358123 397.63678269 186.375 433.3125 C185.74287598 433.97185547 185.11075195 434.63121094 184.45947266 435.31054688 C175.31502521 444.79880305 166.01765991 453.5387044 155.375 461.3125 C154.22394983 462.17056152 153.07290823 463.02863451 151.921875 463.88671875 C143.73224019 469.92427396 135.22961724 475.30707302 126.375 480.3125 C125.66778809 480.7146875 124.96057617 481.116875 124.23193359 481.53125 C101.09654164 494.5566741 75.92537591 503.30551461 49.9375 508.625 C49.21860596 508.77235596 48.49971191 508.91971191 47.7590332 509.0715332 C33.08339502 511.86090125 18.55831162 512.66142619 3.64770508 512.62817383 C0.70811513 512.6250221 -2.2304558 512.64854926 -5.16992188 512.67382812 C-18.54306192 512.71848737 -31.43916711 511.51301542 -44.625 509.3125 C-46.33055054 509.03031616 -46.33055054 509.03031616 -48.07055664 508.74243164 C-91.33802759 500.97044532 -132.38793216 480.98345309 -165.625 452.3125 C-166.37007813 451.67828125 -167.11515625 451.0440625 -167.8828125 450.390625 C-181.38779833 438.57948485 -194.05918743 425.82889772 -204.625 411.3125 C-205.48149066 410.16255169 -206.33826433 409.01281411 -207.1953125 407.86328125 C-213.23534209 399.67315742 -218.61867614 391.16870382 -223.625 382.3125 C-224.0271875 381.60528809 -224.429375 380.89807617 -224.84375 380.16943359 C-237.8691741 357.03404164 -246.61801461 331.86287591 -251.9375 305.875 C-252.08485596 305.15610596 -252.23221191 304.43721191 -252.3840332 303.6965332 C-255.35789088 288.05024391 -255.99800362 272.57681954 -255.9375 256.6875 C-255.93534485 255.66959381 -255.9331897 254.65168762 -255.93096924 253.60293579 C-255.88129854 238.99386477 -255.63040191 224.66174147 -252.625 210.3125 C-252.42632324 209.33764648 -252.22764648 208.36279297 -252.02294922 207.35839844 C-241.90232806 158.9765226 -219.9858123 114.98821731 -185.625 79.3125 C-184.99287598 78.65314453 -184.36075195 77.99378906 -183.70947266 77.31445312 C-174.56502521 67.82619695 -165.26765991 59.0862956 -154.625 51.3125 C-153.47394983 50.45443848 -152.32290823 49.59636549 -151.171875 48.73828125 C-142.98224019 42.70072604 -134.47961724 37.31792698 -125.625 32.3125 C-124.91778809 31.9103125 -124.21057617 31.508125 -123.48193359 31.09375 C-100.34654164 18.0683259 -75.17537591 9.31948539 -49.1875 4 C-48.46860596 3.85264404 -47.74971191 3.70528809 -47.0090332 3.5534668 C-31.36274391 0.57960912 -15.88931954 -0.06050362 0 0 Z " fill="#FEEA50" transform="translate(255.625,-0.3125)"/>
<path d="M0 0 C6.6 0 13.2 0 20 0 C20 29.37 20 58.74 20 89 C54.98 89 89.96 89 126 89 C126 59.63 126 30.26 126 0 C132.93 0 139.86 0 147 0 C147 29.37 147 58.74 147 89 C159.7875 87.1025 172.575 85.205 185.75 83.25 C214.42882037 81.28079193 235.67735372 85.75413237 257.49327862 104.60429621 C267.49238152 113.41412978 276.86366668 122.8250468 286.02124977 132.49855614 C287.56483326 134.12746223 289.11441616 135.75046418 290.66532898 137.37239075 C297.12075356 144.13692522 303.45549208 150.99847127 309.65981841 157.99415064 C310.99233576 159.49478224 312.33196212 160.98909137 313.6716404 162.48333359 C328.99723909 179.77406758 328.99723909 179.77406758 329.1015625 188.98461914 C328.65893555 192.13270569 328.65893555 192.13270569 328 195 C327.77854961 196.91142856 327.56707765 198.82407391 327.37109375 200.73828125 C327.07622599 202.59901554 326.76458265 204.45715743 326.4375 206.3125 C326.26186523 207.32739502 326.08623047 208.34229004 325.90527344 209.38793945 C317.83286102 253.59966038 298.16451648 294.87019846 269 329 C268.36320312 329.74894531 267.72640625 330.49789063 267.0703125 331.26953125 C255.25297532 344.76520621 242.51448412 357.43558025 228 368 C226.85005169 368.85649066 225.70031411 369.71326433 224.55078125 370.5703125 C216.36065742 376.61034209 207.85620382 381.99367614 199 387 C198.29278809 387.4021875 197.58557617 387.804375 196.85693359 388.21875 C170.07773923 403.29566611 138.15135536 415.1691042 107.29702759 417.77156067 C104.90956901 417.96043894 104.90956901 417.96043894 102.26425171 418.62626648 C94.34804091 419.72030121 89.95174261 417.85954634 83.69187832 413.19890785 C78.90820336 409.37100171 74.2977166 405.37119491 69.7265625 401.29296875 C68.72375377 400.40669112 67.72070667 399.52068314 66.71742821 398.63493729 C59.7570562 392.46722112 52.95969667 386.13723014 46.23138857 379.71781206 C44.62791474 378.1902767 43.01873738 376.66894349 41.40871811 375.14831161 C16.74523924 351.779647 -4.01731162 330.47457662 -6.44169617 294.91061401 C-6.87316447 274.99573513 -2.82128526 255.74899683 0 236 C-29.7 236 -59.4 236 -90 236 C-90 229.4 -90 222.8 -90 216 C-60.63 216 -31.26 216 -1 216 C-1 181.02 -1 146.04 -1 110 C-30.37 110 -59.74 110 -90 110 C-90 103.4 -90 96.8 -90 90 C-60.3 90 -30.6 90 0 90 C0 60.3 0 30.6 0 0 Z " fill="#F6D039" transform="translate(183,93)"/>
<path d="M0 0 C6.6 0 13.2 0 20 0 C20 29.37 20 58.74 20 89 C54.98 89 89.96 89 126 89 C126 59.63 126 30.26 126 0 C132.93 0 139.86 0 147 0 C147 29.37 147 58.74 147 89 C176.37 89 205.74 89 236 89 C236 95.93 236 102.86 236 110 C206.63 110 177.26 110 147 110 C147 144.98 147 179.96 147 216 C176.37 216 205.74 216 236 216 C236 222.93 236 229.86 236 237 C206.63 237 177.26 237 147 237 C147 266.37 147 295.74 147 326 C140.07 326 133.14 326 126 326 C126 296.63 126 267.26 126 237 C91.02 237 56.04 237 20 237 C20 266.37 20 295.74 20 326 C13.4 326 6.8 326 0 326 C0 296.3 0 266.6 0 236 C-29.7 236 -59.4 236 -90 236 C-90 229.4 -90 222.8 -90 216 C-60.63 216 -31.26 216 -1 216 C-1 181.02 -1 146.04 -1 110 C-30.37 110 -59.74 110 -90 110 C-90 103.4 -90 96.8 -90 90 C-60.3 90 -30.6 90 0 90 C0 60.3 0 30.6 0 0 Z " fill="#243465" transform="translate(183,93)"/>
<path d="M0 0 C6.27 0 12.54 0 19 0 C19 29.7 19 59.4 19 90 C36.82 90 54.64 90 73 90 C73 96.27 73 102.54 73 109 C55.51 109 38.02 109 20 109 C20 144.64 20 180.28 20 217 C37.49 217 54.98 217 73 217 C73 223.27 73 229.54 73 236 C55.18 236 37.36 236 19 236 C19 265.7 19 295.4 19 326 C12.73 326 6.46 326 0 326 C0 296.3 0 266.6 0 236 C-29.7 236 -59.4 236 -90 236 C-90 229.4 -90 222.8 -90 216 C-60.63 216 -31.26 216 -1 216 C-1 181.02 -1 146.04 -1 110 C-30.37 110 -59.74 110 -90 110 C-90 103.4 -90 96.8 -90 90 C-60.3 90 -30.6 90 0 90 C0 60.3 0 30.6 0 0 Z " fill="#0367A8" transform="translate(183,93)"/>
<path d="M0 0 C34.98 0 69.96 0 106 0 C106 34.98 106 69.96 106 106 C71.02 106 36.04 106 0 106 C0 71.02 0 36.04 0 0 Z " fill="#F6D039" transform="translate(203,203)"/>
<path d="M0 0 C7.59322034 6.50847458 7.59322034 6.50847458 10.1875 9.4375 C12.59830357 12.2324975 12.59830357 12.2324975 14.8828125 11.9375 C17.771175 10.6585203 19.49612696 8.82631512 21.6875 6.5625 C22.47511719 5.75941406 23.26273438 4.95632812 24.07421875 4.12890625 C26.03603929 2.15155947 26.03603929 2.15155947 27 0 C30.76603869 1.56282982 33.13639151 3.9063475 35.984375 6.7890625 C36.44483215 7.25234955 36.90528931 7.7156366 37.37969971 8.19296265 C38.84125078 9.66565898 40.29567168 11.14517403 41.75 12.625 C42.74302611 13.62806322 43.73651089 14.63067257 44.73046875 15.6328125 C47.15897941 18.08330835 49.58114675 20.5399667 52 23 C55.76603869 21.43717018 58.13639151 19.0936525 60.984375 16.2109375 C61.44483215 15.74765045 61.90528931 15.2843634 62.37969971 14.80703735 C63.84125078 13.33434102 65.29567168 11.85482597 66.75 10.375 C67.74302611 9.37193678 68.73651089 8.36932743 69.73046875 7.3671875 C72.15897941 4.91669165 74.58114675 2.4600333 77 0 C80.83069243 1.57521721 83.21686242 4.00168598 86.09765625 6.9375 C86.57319443 7.41823975 87.0487326 7.89897949 87.53868103 8.39428711 C89.05147514 9.92482801 90.55739088 11.46190417 92.0625 13 C93.57203403 14.53720762 95.08302545 16.0729084 96.59703064 17.60571289 C97.96911706 18.99560387 99.3363686 20.39026285 100.70336914 21.78515625 C102.99009126 24.12217376 102.99009126 24.12217376 106 26 C106.36076355 28.5942688 106.36076355 28.5942688 106.34057617 31.91845703 C106.34021362 33.17698486 106.33985107 34.4355127 106.33947754 35.73217773 C106.32436958 37.07406049 106.30886976 38.4159389 106.29296875 39.7578125 C106.28994751 40.97460693 106.28692627 42.19140137 106.28381348 43.44506836 C106.26807739 48.00513144 106.22619374 52.56507394 106.1875 57.125 C106.125625 67.31375 106.06375 77.5025 106 88 C71.02 88 36.04 88 0 88 C0 58.96 0 29.92 0 0 Z " fill="#F6D039" transform="translate(203,94)"/>
<path d="M0 0 C9.85611668 6.32043038 16.84758639 14.66247107 20.6171875 25.828125 C22.55966524 36.84871297 21.52019405 47.95118255 15.421875 57.4609375 C8.4928409 66.85570896 0.24512678 72.80458912 -11 76 C-23.36773082 77.25259534 -33.05551942 75.36810712 -43.375 68.125 C-51.68891714 61.30862073 -56.97208749 52.71311359 -59 42 C-60.12081706 29.57494227 -57.51566031 19.48290375 -49.59375 9.7421875 C-37.0159929 -4.00702737 -16.89784185 -9.1194702 0 0 Z " fill="#C42363" transform="translate(275,219)"/>
<path d="M0 0 C29.7 0 59.4 0 90 0 C90 29.7 90 59.4 90 90 C82.12469996 83.24974282 82.12469996 83.24974282 79.00721741 80.13420105 C78.29921997 79.42902344 77.59122253 78.72384583 76.86177063 77.99729919 C76.11082626 77.2443306 75.3598819 76.491362 74.58618164 75.71557617 C73.37032883 74.50235184 73.37032883 74.50235184 72.12991333 73.26461792 C69.47081874 70.6098993 66.81536835 67.95157015 64.16015625 65.29296875 C62.30942663 63.44291299 60.4585486 61.59300568 58.60752869 59.74324036 C54.74005349 55.87757792 50.87467754 52.00982582 47.01049805 48.14086914 C42.53895525 43.66386231 38.06379024 39.19050041 33.58677202 34.71896952 C29.27509176 30.41236272 24.96621409 26.10296343 20.65853691 21.79235268 C18.82554066 19.95868731 16.9917957 18.12577008 15.15730476 16.29360008 C12.60513592 13.74395393 10.05616584 11.19115362 7.50805664 8.63745117 C6.74294266 7.87436142 5.97782867 7.11127167 5.18952942 6.32505798 C4.15714142 5.28844025 4.15714142 5.28844025 3.10389709 4.23088074 C2.50091828 3.6275249 1.89793947 3.02416906 1.27668858 2.40252972 C0 1 0 1 0 0 Z " fill="#F2CE3B" transform="translate(93,329)"/>
<path d="M0 0 C29.04 0 58.08 0 88 0 C88 29.04 88 58.08 88 88 C80.12469992 81.24974279 80.12469992 81.24974279 77.08314514 78.21012878 C76.04639145 77.17760483 76.04639145 77.17760483 74.98869324 76.1242218 C73.8903289 75.02282112 73.8903289 75.02282112 72.76977539 73.89916992 C71.58318329 72.7152063 71.58318329 72.7152063 70.37261963 71.50732422 C67.77845675 68.91753607 65.18793702 66.32413931 62.59765625 63.73046875 C60.79176711 61.9252535 58.98572956 60.12018669 57.17955017 58.31526184 C53.40640233 54.54358468 49.63501271 50.77016157 45.86499023 46.99536133 C41.50251076 42.62741728 37.13640857 38.26311922 32.76845366 33.90065116 C28.5614254 29.69869635 24.35719829 25.49394766 20.1541729 21.28798866 C18.36583403 19.4989807 16.5767465 17.7107208 14.78691292 15.92320824 C12.2970099 13.43582793 9.81030622 10.94529399 7.32446289 8.45385742 C6.57805038 7.70946915 5.83163788 6.96508087 5.06260681 6.19813538 C4.39117645 5.52388519 3.71974609 4.84963501 3.02796936 4.154953 C2.43973924 3.56634585 1.85150911 2.9777387 1.24545383 2.37129498 C0 1 0 1 0 0 Z " fill="#F7D139" transform="translate(94,203)"/>
<path d="M0 0 C7.87530008 6.75025721 7.87530008 6.75025721 10.91685486 9.78987122 C11.60802399 10.47822052 12.29919312 11.16656982 13.01130676 11.8757782 C13.74354965 12.61004532 14.47579254 13.34431244 15.23022461 14.10083008 C16.41681671 15.2847937 16.41681671 15.2847937 17.62738037 16.49267578 C20.22154325 19.08246393 22.81206298 21.67586069 25.40234375 24.26953125 C27.20823289 26.0747465 29.01427044 27.87981331 30.82044983 29.68473816 C34.59359767 33.45641532 38.36498729 37.22983843 42.13500977 41.00463867 C46.49748924 45.37258272 50.86359143 49.73688078 55.23154634 54.09934884 C59.4385746 58.30130365 63.64280171 62.50605234 67.8458271 66.71201134 C69.63416597 68.5010193 71.4232535 70.2892792 73.21308708 72.07679176 C75.7029901 74.56417207 78.18969378 77.05470601 80.67553711 79.54614258 C81.42194962 80.29053085 82.16836212 81.03491913 82.93739319 81.80186462 C83.60882355 82.47611481 84.28025391 83.15036499 84.97203064 83.845047 C85.56026076 84.43365415 86.14849089 85.0222613 86.75454617 85.62870502 C88 87 88 87 88 88 C58.96 88 29.92 88 0 88 C0 58.96 0 29.92 0 0 Z " fill="#F7D139" transform="translate(330,94)"/>
<path d="M0 0 C3.76603869 1.56282982 6.13639151 3.9063475 8.984375 6.7890625 C9.44483215 7.25234955 9.90528931 7.7156366 10.37969971 8.19296265 C11.84125078 9.66565898 13.29567168 11.14517403 14.75 12.625 C15.74302611 13.62806322 16.73651089 14.63067257 17.73046875 15.6328125 C20.15897941 18.08330835 22.58114675 20.5399667 25 23 C28.76603869 21.43717018 31.13639151 19.0936525 33.984375 16.2109375 C34.44483215 15.74765045 34.90528931 15.2843634 35.37969971 14.80703735 C36.84125078 13.33434102 38.29567168 11.85482597 39.75 10.375 C40.74302611 9.37193678 41.73651089 8.36932743 42.73046875 7.3671875 C45.15897941 4.91669165 47.58114675 2.4600333 50 0 C54.00374431 1.83692389 56.71957934 4.49117916 59.75 7.625 C60.25660156 8.140625 60.76320313 8.65625 61.28515625 9.1875 C62.52803902 10.45383339 63.76465276 11.7263144 65 13 C63.43717018 16.76603869 61.0936525 19.13639151 58.2109375 21.984375 C57.74765045 22.44483215 57.2843634 22.90528931 56.80703735 23.37969971 C55.33434102 24.84125078 53.85482597 26.29567168 52.375 27.75 C51.37193678 28.74302611 50.36932743 29.73651089 49.3671875 30.73046875 C46.91669165 33.15897941 44.4600333 35.58114675 42 38 C43.56282982 41.76603869 45.9063475 44.13639151 48.7890625 46.984375 C49.48399307 47.67506073 49.48399307 47.67506073 50.19296265 48.37969971 C51.66565898 49.84125078 53.14517403 51.29567168 54.625 52.75 C55.62806322 53.74302611 56.63067257 54.73651089 57.6328125 55.73046875 C60.08330835 58.15897941 62.5399667 60.58114675 65 63 C63.16307611 67.00374431 60.50882084 69.71957934 57.375 72.75 C56.859375 73.25660156 56.34375 73.76320313 55.8125 74.28515625 C54.54616661 75.52803902 53.2736856 76.76465276 52 78 C48.23396131 76.43717018 45.86360849 74.0936525 43.015625 71.2109375 C42.55516785 70.74765045 42.09471069 70.2843634 41.62030029 69.80703735 C40.15874922 68.33434102 38.70432832 66.85482597 37.25 65.375 C36.25697389 64.37193678 35.26348911 63.36932743 34.26953125 62.3671875 C31.84102059 59.91669165 29.41885325 57.4600333 27 55 C23.23703602 56.55750023 20.9083903 58.8892086 18.0859375 61.7890625 C17.16039062 62.73007813 16.23484375 63.67109375 15.28125 64.640625 C14.31191584 65.63484747 13.34317245 66.62964623 12.375 67.625 C10.47177547 69.58126729 8.56230388 71.53062014 6.6484375 73.4765625 C5.80458496 74.34361816 4.96073242 75.21067383 4.09130859 76.10400391 C2 78 2 78 0 78 C-1.515625 76.42578125 -1.515625 76.42578125 -3.25 74.3125 C-6.25954469 70.76035397 -9.33524535 67.86029631 -13 65 C-11.43717018 61.23396131 -9.0936525 58.86360849 -6.2109375 56.015625 C-5.74765045 55.55516785 -5.2843634 55.09471069 -4.80703735 54.62030029 C-3.33434102 53.15874922 -1.85482597 51.70432832 -0.375 50.25 C0.62806322 49.25697389 1.63067257 48.26348911 2.6328125 47.26953125 C5.08330835 44.84102059 7.5399667 42.41885325 10 40 C8.44249977 36.23703602 6.1107914 33.9083903 3.2109375 31.0859375 C2.26992187 30.16039063 1.32890625 29.23484375 0.359375 28.28125 C-0.63484747 27.31191584 -1.62964623 26.34317245 -2.625 25.375 C-4.58126729 23.47177547 -6.53062014 21.56230388 -8.4765625 19.6484375 C-9.34361816 18.80458496 -10.21067383 17.96073242 -11.10400391 17.09130859 C-13 15 -13 15 -13 13 C-11.42578125 11.484375 -11.42578125 11.484375 -9.3125 9.75 C-5.76035397 6.74045531 -2.86029631 3.66475465 0 0 Z " fill="#1D1C1A" transform="translate(230,94)"/>
<path d="M0 0 C5.80891746 4.81867247 11.13065552 10.01256408 16.4375 15.375 C17.26443359 16.20644531 18.09136719 17.03789062 18.94335938 17.89453125 C20.96455531 19.9274104 22.98336335 21.96259963 25 24 C28.96848539 20.72350942 32.68869195 17.36596719 36.26171875 13.66015625 C36.98810547 12.90798828 37.71449219 12.15582031 38.46289062 11.38085938 C39.96525893 9.81517792 41.45989181 8.24204232 42.94726562 6.66210938 C43.66978516 5.91896484 44.39230469 5.17582031 45.13671875 4.41015625 C46.10677856 3.39127319 46.10677856 3.39127319 47.09643555 2.35180664 C49 1 49 1 51.06665039 1.13037109 C54.23098232 2.5537011 56.39442507 5.08636415 58.75 7.5625 C59.25660156 8.08263672 59.76320313 8.60277344 60.28515625 9.13867188 C61.53034405 10.41910084 62.76611502 11.70867554 64 13 C62.43717018 16.76603869 60.0936525 19.13639151 57.2109375 21.984375 C56.74765045 22.44483215 56.2843634 22.90528931 55.80703735 23.37969971 C54.33434102 24.84125078 52.85482597 26.29567168 51.375 27.75 C50.37193678 28.74302611 49.36932743 29.73651089 48.3671875 30.73046875 C45.91669165 33.15897941 43.4600333 35.58114675 41 38 C42.56282982 41.76603869 44.9063475 44.13639151 47.7890625 46.984375 C48.48399307 47.67506073 48.48399307 47.67506073 49.19296265 48.37969971 C50.66565898 49.84125078 52.14517403 51.29567168 53.625 52.75 C54.62806322 53.74302611 55.63067257 54.73651089 56.6328125 55.73046875 C59.08330835 58.15897941 61.5399667 60.58114675 64 63 C62.16307611 67.00374431 59.50882084 69.71957934 56.375 72.75 C55.859375 73.25660156 55.34375 73.76320313 54.8125 74.28515625 C53.54616661 75.52803902 52.2736856 76.76465276 51 78 C47.23396131 76.43717018 44.86360849 74.0936525 42.015625 71.2109375 C41.55516785 70.74765045 41.09471069 70.2843634 40.62030029 69.80703735 C39.15874922 68.33434102 37.70432832 66.85482597 36.25 65.375 C35.25697389 64.37193678 34.26348911 63.36932743 33.26953125 62.3671875 C30.84102059 59.91669165 28.41885325 57.4600333 26 55 C22.23396131 56.56282982 19.86360849 58.9063475 17.015625 61.7890625 C16.32493927 62.48399307 16.32493927 62.48399307 15.62030029 63.19296265 C14.15874922 64.66565898 12.70432832 66.14517403 11.25 67.625 C10.25697389 68.62806322 9.26348911 69.63067257 8.26953125 70.6328125 C5.84102059 73.08330835 3.41885325 75.5399667 1 78 C-2.7658106 74.81968878 -6.48438989 71.64858175 -9.9375 68.125 C-10.52402344 67.52945313 -11.11054688 66.93390625 -11.71484375 66.3203125 C-12.35099609 65.66675781 -12.35099609 65.66675781 -13 65 C-11.43717018 61.23396131 -9.0936525 58.86360849 -6.2109375 56.015625 C-5.74765045 55.55516785 -5.2843634 55.09471069 -4.80703735 54.62030029 C-3.33434102 53.15874922 -1.85482597 51.70432832 -0.375 50.25 C0.62806322 49.25697389 1.63067257 48.26348911 2.6328125 47.26953125 C5.08330835 44.84102059 7.5399667 42.41885325 10 40 C5.18132753 34.19108254 -0.01256408 28.86934448 -5.375 23.5625 C-6.20644531 22.73556641 -7.03789062 21.90863281 -7.89453125 21.05664062 C-9.9274104 19.03544469 -11.96259963 17.01663665 -14 15 C-10.66883385 11.04625813 -7.31571444 7.18958143 -3.625 3.5625 C-2.93664062 2.88316406 -2.24828125 2.20382813 -1.5390625 1.50390625 C-1.03117187 1.00761719 -0.52328125 0.51132813 0 0 Z " fill="#1D1C1A" transform="translate(356,217)"/>
<path d="M0 0 C0 26.4 0 52.8 0 80 C-12.12930087 80 -20.84606862 75.59317191 -29.64453125 67.484375 C-37.86151655 58.91374729 -40.43922042 47.22250606 -40.34375 35.7421875 C-39.36169389 25.05116756 -33.41765073 15.86964907 -25.625 8.75 C-17.85298318 2.43630863 -9.97690647 0 0 0 Z " fill="#FE4681" transform="translate(256,215)"/>
<path d="M0 0 C3.73476188 1.5555224 6.08754609 3.85724529 8.9140625 6.71875 C9.83960938 7.65074219 10.76515625 8.58273438 11.71875 9.54296875 C12.68761788 10.52852996 13.65636661 11.51420833 14.625 12.5 C15.60109779 13.48613728 16.5776557 14.47181935 17.5546875 15.45703125 C20.04063233 17.96728001 22.52076016 20.48313452 25 23 C25.66 23.66 26.32 24.32 27 25 C27.51479036 29.03986171 27.54197978 33.08651735 27.59033203 37.15649414 C27.62458532 39.16320614 27.71236624 41.16877223 27.80078125 43.17382812 C27.92543228 52.67127754 27.92543228 52.67127754 25.48681641 56.17260742 C23.4167444 57.95219249 21.24546037 59.44947294 19 61 C17.49252148 62.43567013 16.0164656 63.90491882 14.5703125 65.40234375 C13.838125 66.14677734 13.1059375 66.89121094 12.3515625 67.65820312 C10.842074 69.20344267 9.33431467 70.75037293 7.828125 72.29882812 C6.74144531 73.40194336 6.74144531 73.40194336 5.6328125 74.52734375 C4.98199707 75.19499756 4.33118164 75.86265137 3.66064453 76.55053711 C2 78 2 78 0 78 C-1.515625 76.42578125 -1.515625 76.42578125 -3.25 74.3125 C-6.25954469 70.76035397 -9.33524535 67.86029631 -13 65 C-11.43717018 61.23396131 -9.0936525 58.86360849 -6.2109375 56.015625 C-5.74765045 55.55516785 -5.2843634 55.09471069 -4.80703735 54.62030029 C-3.33434102 53.15874922 -1.85482597 51.70432832 -0.375 50.25 C0.62806322 49.25697389 1.63067257 48.26348911 2.6328125 47.26953125 C5.08330835 44.84102059 7.5399667 42.41885325 10 40 C8.44249977 36.23703602 6.1107914 33.9083903 3.2109375 31.0859375 C2.26992187 30.16039063 1.32890625 29.23484375 0.359375 28.28125 C-0.63484747 27.31191584 -1.62964623 26.34317245 -2.625 25.375 C-4.58126729 23.47177547 -6.53062014 21.56230388 -8.4765625 19.6484375 C-9.34361816 18.80458496 -10.21067383 17.96073242 -11.10400391 17.09130859 C-13 15 -13 15 -13 13 C-11.42578125 11.484375 -11.42578125 11.484375 -9.3125 9.75 C-5.76035397 6.74045531 -2.86029631 3.66475465 0 0 Z " fill="#373633" transform="translate(230,94)"/>
</svg>
